<mxfile host="app.diagrams.net" modified="2024-02-04T07:57:08.494Z" agent="Mozilla/5.0 (Windows NT 10.0; Win64; x64) AppleWebKit/537.36 (KHTML, like Gecko) Chrome/121.0.0.0 Safari/537.36" version="22.1.21" etag="Pofb7o5EBif91IRSRFPL" type="github">
  <diagram name="第 1 页" id="pfOibWlIOR7ATeuKh0MB">
    <mxGraphModel>
      <root>
        <mxCell id="0" />
        <mxCell id="1" parent="0" />
      </root>
    </mxGraphModel>
  </diagram>
</mxfile>
